<svg xmlns="http://www.w3.org/2000/svg" width="1024" height="1024" viewBox="0 0 1024 1024">
<g>
<path d="M 699.16 570.45 C699.60,572.84 697.86,573.43 695.96,571.53 C695.14,570.71 691.55,569.51 687.98,568.87 C680.60,567.54 673.17,567.44 617.50,567.92 C595.50,568.12 542.92,567.93 500.66,567.50 C439.80,566.89 422.71,566.99 418.52,568.00 C413.88,569.11 412.93,569.06 410.89,567.63 C408.72,566.12 419.08,566.00 553.10,566.00 L 697.65 566.00 L 700.08 568.72 C701.41,570.22 701.67,570.80 700.66,570.02 C699.02,568.76 698.86,568.81 699.16,570.45 ZM 696.04 697.64 C696.66,698.26 696.80,698.94 696.34,699.14 C695.88,699.34 635.65,699.27 562.50,698.99 C490.02,698.72 431.48,698.31 431.48,698.07 C431.48,698.07 431.49,698.07 431.50,698.07 C432.60,697.84 489.30,697.50 557.50,697.32 C625.70,697.14 684.52,696.88 688.20,696.75 C692.20,696.60 695.36,696.96 696.04,697.64 ZM 348.13 663.93 C345.05,665.58 331.76,665.28 329.44,663.52 C327.76,662.24 327.70,661.90 329.00,661.05 C333.04,658.38 346.65,658.67 348.98,661.48 C349.88,662.56 349.69,663.09 348.13,663.93 ZM 419.00 380.50 C420.67,382.51 419.56,382.42 417.51,380.37 C416.62,379.48 416.12,378.14 416.40,377.41 C416.79,376.39 416.03,376.20 413.17,376.59 C411.12,376.88 408.32,376.69 406.95,376.17 C405.37,375.57 402.36,375.59 398.71,376.22 C394.23,376.99 392.60,376.91 391.35,375.88 C389.92,374.69 390.06,374.41 392.62,373.32 C396.15,371.81 400.00,371.65 400.00,373.00 C400.00,373.55 401.24,373.99 402.75,373.98 C404.89,373.97 405.17,373.76 404.00,373.00 C401.54,371.41 410.68,371.78 413.80,373.40 C417.23,375.17 420.81,379.00 419.03,379.00 C418.01,379.00 418.00,379.30 419.00,380.50 ZM 340.08 602.49 C337.81,602.87 335.29,603.85 334.48,604.66 C333.67,605.48 333.00,605.71 333.00,605.18 C333.00,604.65 331.95,603.95 330.67,603.63 C329.38,603.31 328.33,602.36 328.33,601.52 C328.33,600.69 328.52,600.19 328.75,600.41 C328.98,600.64 330.67,600.20 332.51,599.43 C335.20,598.31 336.98,598.26 341.67,599.17 C347.51,600.30 350.00,601.48 350.00,603.12 C350.00,604.37 346.61,604.21 345.30,602.90 C344.60,602.20 342.66,602.05 340.08,602.49 ZM 708.37 687.75 C707.56,690.77 705.18,690.60 703.98,687.43 C701.57,681.10 704.20,673.05 707.57,676.43 C709.03,677.89 709.45,683.73 708.37,687.75 ZM 449.00 406.48 C449.00,406.49 447.17,406.56 444.92,406.63 C442.64,406.71 440.70,406.27 440.51,405.63 C439.40,401.85 439.35,400.03 440.36,399.56 C440.99,399.26 440.53,399.26 439.33,399.55 C438.14,399.84 436.85,399.57 436.46,398.93 C435.93,398.07 435.57,398.07 435.04,398.94 C434.53,399.75 433.91,399.58 432.91,398.36 C432.14,397.40 432.01,396.92 432.64,397.30 C434.24,398.26 435.17,393.95 433.77,392.05 C433.14,391.20 436.31,394.09 440.81,398.48 C445.31,402.86 449.00,406.46 449.00,406.48 ZM 320.48 682.70 C320.49,687.02 320.02,690.38 319.29,691.11 C316.35,694.05 314.82,680.36 317.43,674.50 C318.66,671.72 318.82,671.65 319.61,673.50 C320.08,674.60 320.48,678.74 320.48,682.70 ZM 519.44 399.09 C518.73,400.24 517.95,400.20 515.74,398.92 C514.78,398.35 513.43,398.20 512.74,398.58 C512.06,398.96 515.09,395.61 519.48,391.14 C523.86,386.66 527.67,383.00 527.93,383.00 C528.19,383.00 527.86,383.54 527.20,384.20 C525.83,385.57 525.57,387.39 526.85,386.59 C527.32,386.30 527.66,387.29 527.60,388.78 C527.52,391.07 527.06,391.49 524.75,391.46 C522.92,391.43 521.80,392.05 521.41,393.28 C521.09,394.31 520.23,394.92 519.50,394.64 C518.78,394.36 517.36,395.12 516.34,396.32 C514.50,398.49 514.50,398.50 516.63,396.71 C518.56,395.07 518.81,395.06 519.38,396.55 C519.72,397.45 519.75,398.59 519.44,399.09 ZM 579.54 333.00 C579.32,333.00 578.44,333.71 577.57,334.57 C576.71,335.44 576.00,335.76 576.00,335.28 C576.00,333.64 585.81,324.77 586.89,325.43 C587.60,325.87 587.74,325.48 587.30,324.33 C586.71,322.81 586.82,322.76 588.10,323.94 C589.81,325.54 590.10,328.98 588.47,328.35 C587.08,327.82 584.32,330.88 583.84,333.50 C583.62,334.71 582.53,335.63 581.10,335.84 C579.27,336.10 578.86,335.81 579.33,334.59 C579.66,333.71 579.76,333.00 579.54,333.00 ZM 708.62 583.73 C708.27,586.33 707.34,589.08 706.57,589.86 C705.36,591.06 705.03,590.75 704.17,587.66 C703.09,583.74 703.55,580.62 705.66,577.53 C706.83,575.80 707.00,575.77 707.00,577.28 C707.00,578.22 707.51,579.00 708.14,579.00 C708.91,579.00 709.07,580.48 708.62,583.73 ZM 319.91 582.50 C319.98,589.78 318.81,592.37 316.98,588.97 C316.21,587.52 315.95,584.53 316.28,580.90 C317.26,570.04 319.81,571.16 319.91,582.50 ZM 426.49 697.71 C428.11,698.64 426.64,698.91 418.66,699.18 C408.35,699.52 408.00,699.46 408.00,697.37 C408.00,695.71 423.52,696.00 426.49,697.71 ZM 362.00 583.44 C362.00,586.55 361.47,589.20 360.71,589.82 L 360.67 589.86 C360.28,590.18 360.00,590.42 359.79,590.37 C359.24,590.23 359.20,588.14 359.00,580.67 C358.90,576.91 359.08,573.59 359.38,573.28 C360.46,572.20 362.00,578.18 362.00,583.44 ZM 399.06 682.54 C398.55,682.22 397.98,683.43 397.81,685.23 L 397.48 688.50 L 396.68 684.69 C395.75,680.25 397.63,672.81 399.10,675.13 C400.27,676.98 400.24,683.27 399.06,682.54 ZM 588.02 402.48 C587.27,403.38 585.93,404.50 585.04,404.98 C583.76,405.66 583.42,405.38 583.46,403.68 C583.52,401.33 584.69,398.99 585.81,399.02 C586.19,399.02 587.15,399.44 587.94,399.94 C589.15,400.71 589.16,401.10 588.02,402.48 ZM 596.02 394.48 C595.27,395.38 593.90,396.52 592.97,397.01 C591.58,397.76 591.33,397.49 591.55,395.52 C592.02,391.23 593.24,390.23 595.94,391.94 C597.15,392.71 597.16,393.10 596.02,394.48 ZM 398.68 581.74 C398.49,589.21 398.44,589.53 397.65,588.24 C396.28,586.02 396.17,580.20 397.45,577.50 C398.81,574.62 398.86,574.80 398.68,581.74 ZM 407.25 439.85 C407.76,440.36 408.02,441.76 407.83,442.98 L 407.50 445.19 L 405.20 442.72 C403.11,440.49 403.06,440.19 404.61,439.60 C405.56,439.23 406.75,439.35 407.25,439.85 ZM 507.89 482.63 C506.39,484.44 505.08,484.36 504.34,482.43 C503.43,480.06 505.56,478.39 507.47,479.98 C508.65,480.96 508.75,481.59 507.89,482.63 ZM 432.32 464.75 C432.55,465.16 432.45,466.32 432.09,467.32 C431.46,469.05 431.36,469.05 429.71,467.24 C428.77,466.19 428.00,465.04 428.00,464.67 C428.00,463.75 431.78,463.82 432.32,464.75 ZM 620.00 369.68 C620.00,370.37 619.10,371.41 618.00,372.00 C616.25,372.94 616.00,372.76 616.00,370.60 C616.00,368.74 616.50,368.16 618.00,368.27 C619.10,368.36 620.00,368.99 620.00,369.68 ZM 345.60 562.47 C345.60,563.86 345.58,564.95 345.55,564.88 C345.52,564.82 344.71,564.56 343.75,564.31 C342.29,563.93 341.11,561.00 342.42,561.00 C342.65,561.00 343.46,560.76 344.22,560.47 C345.17,560.10 345.60,560.73 345.60,562.47 ZM 440.00 474.00 C440.00,475.10 439.62,476.00 439.15,476.00 C438.69,476.00 437.50,475.10 436.50,474.00 C434.73,472.05 434.75,472.00 437.35,472.00 C439.33,472.00 440.00,472.50 440.00,474.00 ZM 400.05 432.72 C400.45,433.15 400.47,434.32 400.10,435.32 C399.46,437.05 399.35,437.04 397.67,435.19 C396.02,433.37 396.02,433.21 397.62,432.59 C398.56,432.23 399.66,432.29 400.05,432.72 ZM 699.36 670.50 C699.80,671.63 699.18,672.00 696.85,672.00 C694.21,672.00 693.94,671.78 695.00,670.50 C695.68,669.67 696.82,669.00 697.52,669.00 C698.21,669.00 699.05,669.67 699.36,670.50 ZM 564.00 425.61 C564.00,427.45 561.23,428.05 560.58,426.36 C559.75,424.18 559.79,424.11 562.00,424.27 C563.10,424.36 564.00,424.96 564.00,425.61 ZM 632.67 304.50 C632.67,305.33 632.63,305.98 632.58,305.96 C632.54,305.95 631.38,305.29 630.00,304.50 L 627.50 303.07 L 630.08 303.04 C631.73,303.01 632.67,303.54 632.67,304.50 ZM 554.02 433.01 C555.09,433.67 555.19,434.21 554.37,435.03 C553.56,435.84 553.09,435.68 552.61,434.42 C551.78,432.26 552.17,431.87 554.02,433.01 ZM 627.00 363.62 C627.00,363.83 626.33,364.00 625.50,364.00 C624.67,364.00 624.00,363.27 624.00,362.38 C624.00,361.05 624.27,360.98 625.50,362.00 C626.33,362.68 627.00,363.41 627.00,363.62 ZM 443.87 404.25 C444.63,405.21 445.41,406.00 445.62,406.00 C446.45,406.00 445.92,405.18 444.25,403.87 C442.66,402.63 442.63,402.66 443.87,404.25 Z" fill="rgb(63,63,63)"/>
<path d="M 419.00 380.50 C418.00,379.30 418.01,379.00 419.03,379.00 C420.81,379.00 417.23,375.17 413.80,373.40 C410.68,371.78 401.54,371.41 404.00,373.00 C405.17,373.76 404.89,373.97 402.75,373.98 C401.24,373.99 400.00,373.55 400.00,373.00 C400.00,371.96 397.74,371.82 395.09,372.49 C398.10,371.57 401.09,371.00 403.44,371.00 C413.75,371.00 417.63,373.92 447.99,404.40 C463.11,419.58 475.93,432.00 476.48,432.00 C477.02,432.00 506.05,403.45 540.98,368.55 C599.70,309.89 607.35,301.92 615.89,300.82 C617.23,300.64 618.60,300.64 620.18,300.63 C620.60,300.63 621.04,300.63 621.49,300.62 C627.24,300.56 629.42,301.03 633.62,303.23 C648.40,310.95 654.20,328.68 646.54,342.74 C644.60,346.31 622.81,368.70 569.67,421.73 C528.88,462.44 493.51,496.99 491.08,498.50 C487.44,500.76 485.23,501.31 478.58,501.64 C478.24,501.65 477.92,501.67 477.60,501.68 C474.57,501.84 472.23,501.95 469.96,501.60 C461.83,500.31 454.67,492.92 420.99,459.13 C399.80,437.88 381.24,418.99 379.73,417.14 C371.40,406.93 372.85,388.10 382.71,378.75 C384.80,376.77 388.66,374.75 392.75,373.27 C392.71,373.28 392.66,373.30 392.62,373.32 C390.06,374.41 389.92,374.69 391.35,375.88 C392.60,376.91 394.23,376.99 398.71,376.22 C402.36,375.59 405.37,375.57 406.95,376.17 C408.32,376.69 411.12,376.88 413.17,376.59 C416.03,376.20 416.79,376.39 416.40,377.41 C416.12,378.14 416.62,379.48 417.51,380.37 C419.56,382.42 420.67,382.51 419.00,380.50 ZM 399.06 682.54 C400.24,683.27 400.27,676.98 399.10,675.13 C397.63,672.81 395.75,680.25 396.68,684.69 L 397.33 687.79 C394.72,680.07 397.28,670.94 405.11,666.94 C408.83,665.05 412.31,665.00 552.56,665.00 C683.64,665.00 696.50,665.14 699.66,666.64 C705.19,669.27 708.26,674.63 708.84,680.28 C708.64,678.51 708.20,677.06 707.57,676.43 C704.20,673.05 701.57,681.10 703.98,687.43 C704.90,689.88 706.53,690.54 707.60,689.32 C706.19,692.83 703.65,695.89 699.99,697.75 L 695.58 700.00 L 552.54 699.98 L 409.50 699.97 L 405.53 697.72 C401.59,695.49 398.91,692.07 397.50,688.27 L 397.81 685.23 C397.98,683.43 398.55,682.22 399.06,682.54 ZM 699.16 570.45 C698.86,568.81 699.02,568.76 700.66,570.02 C701.67,570.80 701.41,570.22 700.08,568.72 L 699.29 567.83 C702.27,568.46 703.45,569.30 704.23,570.43 C704.86,571.34 705.22,572.43 706.06,573.75 C707.17,575.51 707.95,577.29 708.40,579.07 C708.32,579.02 708.23,579.00 708.14,579.00 C707.51,579.00 707.00,578.22 707.00,577.28 C707.00,575.77 706.83,575.80 705.66,577.53 C703.55,580.62 703.09,583.74 704.17,587.66 C705.03,590.75 705.36,591.06 706.57,589.86 C707.34,589.08 708.27,586.33 708.62,583.73 C708.72,583.06 708.78,582.46 708.82,581.94 C709.05,586.65 706.93,591.33 702.52,595.75 L 698.26 600.00 L 553.38 600.00 C413.79,599.99 408.39,599.92 405.50,598.13 C400.49,595.02 397.81,591.36 396.87,586.35 C395.37,578.32 398.90,570.62 405.68,567.12 C406.13,566.90 409.56,566.71 416.55,566.56 C410.80,566.80 410.18,567.14 410.89,567.63 C412.93,569.06 413.88,569.11 418.52,568.00 C422.71,566.99 439.80,566.89 500.66,567.50 C542.92,567.93 595.50,568.12 617.50,567.92 C673.17,567.44 680.60,567.54 687.98,568.87 C691.55,569.51 695.14,570.71 695.96,571.53 C697.86,573.43 699.60,572.84 699.16,570.45 ZM 348.13 663.93 C349.69,663.09 349.88,662.56 348.98,661.48 C348.68,661.11 348.18,660.79 347.53,660.50 C356.47,663.57 362.59,671.60 362.84,682.41 C363.02,690.55 357.46,699.64 349.92,703.54 C345.06,706.06 339.79,706.73 334.50,705.52 C327.97,704.02 326.06,702.91 321.73,698.12 C316.57,692.41 315.02,685.57 316.65,675.67 C317.46,670.78 323.53,663.84 328.94,661.09 C327.71,661.91 327.79,662.26 329.44,663.52 C331.76,665.28 345.05,665.58 348.13,663.93 ZM 319.91 582.50 C319.83,572.79 317.94,570.57 316.79,576.95 C317.16,574.64 317.68,572.61 318.31,571.40 C322.21,563.95 330.47,559.00 339.00,559.00 C349.07,559.00 357.00,565.32 360.32,573.81 C360.00,573.22 359.68,572.99 359.38,573.28 C359.08,573.59 358.90,576.91 359.00,580.67 C359.20,588.14 359.24,590.23 359.79,590.37 C360.00,590.42 360.28,590.18 360.67,589.86 L 360.71 589.82 C360.92,589.65 361.11,589.33 361.27,588.89 C360.88,590.48 360.32,592.06 359.60,593.62 C356.88,599.46 352.60,603.09 345.72,605.40 C340.04,607.30 338.93,607.30 332.84,605.43 C328.12,603.97 319.29,596.82 318.77,594.02 C318.62,593.21 317.88,591.88 317.12,591.07 C316.39,590.30 316.10,587.60 316.14,584.39 C316.19,586.41 316.48,588.02 316.98,588.97 C318.81,592.37 319.98,589.78 319.91,582.50 ZM 696.04 697.64 C695.36,696.96 692.20,696.60 688.20,696.75 C684.52,696.88 625.70,697.14 557.50,697.32 C489.30,697.50 432.60,697.84 431.50,698.07 C431.49,698.07 431.48,698.07 431.48,698.07 C431.48,698.31 490.02,698.72 562.50,698.99 C635.65,699.27 695.88,699.34 696.34,699.14 C696.80,698.94 696.66,698.26 696.04,697.64 ZM 340.08 602.49 C342.66,602.05 344.60,602.20 345.30,602.90 C346.61,604.21 350.00,604.37 350.00,603.12 C350.00,601.48 347.51,600.30 341.67,599.17 C336.98,598.26 335.20,598.31 332.51,599.43 C330.67,600.20 328.98,600.64 328.75,600.41 C328.52,600.19 328.33,600.69 328.33,601.52 C328.33,602.36 329.38,603.31 330.67,603.63 C331.95,603.95 333.00,604.65 333.00,605.18 C333.00,605.71 333.67,605.48 334.48,604.66 C335.29,603.85 337.81,602.87 340.08,602.49 ZM 449.00 406.48 C449.00,406.46 445.31,402.86 440.81,398.48 C436.31,394.09 433.14,391.20 433.77,392.05 C435.17,393.95 434.24,398.26 432.64,397.30 C432.01,396.92 432.14,397.40 432.91,398.36 C433.91,399.58 434.53,399.75 435.04,398.94 C435.57,398.07 435.93,398.07 436.46,398.93 C436.85,399.57 438.14,399.84 439.33,399.55 C440.53,399.26 440.99,399.26 440.36,399.56 C439.35,400.03 439.40,401.85 440.51,405.63 C440.70,406.27 442.64,406.71 444.92,406.63 C447.17,406.56 449.00,406.49 449.00,406.48 ZM 320.48 682.70 C320.48,678.74 320.08,674.60 319.61,673.50 C318.82,671.65 318.66,671.72 317.43,674.50 C314.82,680.36 316.35,694.05 319.29,691.11 C320.02,690.38 320.49,687.02 320.48,682.70 ZM 519.44 399.09 C519.75,398.59 519.72,397.45 519.38,396.55 C518.81,395.06 518.56,395.07 516.63,396.71 C514.50,398.50 514.50,398.49 516.34,396.32 C517.36,395.12 518.78,394.36 519.50,394.64 C520.23,394.92 521.09,394.31 521.41,393.28 C521.80,392.05 522.92,391.43 524.75,391.46 C527.06,391.49 527.52,391.07 527.60,388.78 C527.66,387.29 527.32,386.30 526.85,386.59 C525.57,387.39 525.83,385.57 527.20,384.20 C527.86,383.54 528.19,383.00 527.93,383.00 C527.67,383.00 523.86,386.66 519.48,391.14 C515.09,395.61 512.06,398.96 512.74,398.58 C513.43,398.20 514.78,398.35 515.74,398.92 C517.95,400.20 518.73,400.24 519.44,399.09 ZM 579.54 333.00 C579.76,333.00 579.66,333.71 579.33,334.59 C578.86,335.81 579.27,336.10 581.10,335.84 C582.53,335.63 583.62,334.71 583.84,333.50 C584.32,330.88 587.08,327.82 588.47,328.35 C590.10,328.98 589.81,325.54 588.10,323.94 C586.82,322.76 586.71,322.81 587.30,324.33 C587.74,325.48 587.60,325.87 586.89,325.43 C585.81,324.77 576.00,333.64 576.00,335.28 C576.00,335.76 576.71,335.44 577.57,334.57 C578.44,333.71 579.32,333.00 579.54,333.00 ZM 426.49 697.71 C423.52,696.00 408.00,695.71 408.00,697.37 C408.00,699.46 408.35,699.52 418.66,699.18 C426.64,698.91 428.11,698.64 426.49,697.71 ZM 588.02 402.48 C589.16,401.10 589.15,400.71 587.94,399.94 C587.15,399.44 586.19,399.02 585.81,399.02 C584.69,398.99 583.52,401.33 583.46,403.68 C583.42,405.38 583.76,405.66 585.04,404.98 C585.93,404.50 587.27,403.38 588.02,402.48 ZM 596.02 394.48 C597.16,393.10 597.15,392.71 595.94,391.94 C593.24,390.23 592.02,391.23 591.55,395.52 C591.33,397.49 591.58,397.76 592.97,397.01 C593.90,396.52 595.27,395.38 596.02,394.48 ZM 398.68 581.74 C398.86,574.80 398.81,574.62 397.45,577.50 C396.17,580.20 396.28,586.02 397.65,588.24 C398.44,589.53 398.49,589.21 398.68,581.74 ZM 407.25 439.85 C406.75,439.35 405.56,439.23 404.61,439.60 C403.06,440.19 403.11,440.49 405.20,442.72 L 407.50 445.19 L 407.83 442.98 C408.02,441.76 407.76,440.36 407.25,439.85 ZM 507.89 482.63 C508.75,481.59 508.65,480.96 507.47,479.98 C505.56,478.39 503.43,480.06 504.34,482.43 C505.08,484.36 506.39,484.44 507.89,482.63 ZM 432.32 464.75 C431.78,463.82 428.00,463.75 428.00,464.67 C428.00,465.04 428.77,466.19 429.71,467.24 C431.36,469.05 431.46,469.05 432.09,467.32 C432.45,466.32 432.55,465.16 432.32,464.75 ZM 620.00 369.68 C620.00,368.99 619.10,368.36 618.00,368.27 C616.50,368.16 616.00,368.74 616.00,370.60 C616.00,372.76 616.25,372.94 618.00,372.00 C619.10,371.41 620.00,370.37 620.00,369.68 ZM 345.60 562.47 C345.60,560.73 345.17,560.10 344.22,560.47 C343.46,560.76 342.65,561.00 342.42,561.00 C341.11,561.00 342.29,563.93 343.75,564.31 C344.71,564.56 345.52,564.82 345.55,564.88 C345.58,564.95 345.60,563.86 345.60,562.47 ZM 440.00 474.00 C440.00,472.50 439.33,472.00 437.35,472.00 C434.75,472.00 434.73,472.05 436.50,474.00 C437.50,475.10 438.69,476.00 439.15,476.00 C439.62,476.00 440.00,475.10 440.00,474.00 ZM 400.05 432.72 C399.66,432.29 398.56,432.23 397.62,432.59 C396.02,433.21 396.02,433.37 397.67,435.19 C399.35,437.04 399.46,437.05 400.10,435.32 C400.47,434.32 400.45,433.15 400.05,432.72 ZM 699.36 670.50 C699.05,669.67 698.21,669.00 697.52,669.00 C696.82,669.00 695.68,669.67 695.00,670.50 C693.94,671.78 694.21,672.00 696.85,672.00 C699.18,672.00 699.80,671.63 699.36,670.50 ZM 564.00 425.61 C564.00,424.96 563.10,424.36 562.00,424.27 C559.79,424.11 559.75,424.18 560.58,426.36 C561.23,428.05 564.00,427.45 564.00,425.61 ZM 632.67 304.50 C632.67,303.54 631.73,303.01 630.08,303.04 L 627.50 303.07 L 630.00 304.50 C631.38,305.29 632.54,305.95 632.58,305.96 C632.63,305.98 632.67,305.33 632.67,304.50 ZM 554.02 433.01 C552.17,431.87 551.78,432.26 552.61,434.42 C553.09,435.68 553.56,435.84 554.37,435.03 C555.19,434.21 555.09,433.67 554.02,433.01 ZM 627.00 363.62 C627.00,363.41 626.33,362.68 625.50,362.00 C624.27,360.98 624.00,361.05 624.00,362.38 C624.00,363.27 624.67,364.00 625.50,364.00 C626.33,364.00 627.00,363.83 627.00,363.62 ZM 443.87 404.25 C442.63,402.66 442.66,402.63 444.25,403.87 C445.92,405.18 446.45,406.00 445.62,406.00 C445.41,406.00 444.63,405.21 443.87,404.25 ZM 635.00 566.00 L 553.10 566.00 C565.56,566.00 576.97,566.00 587.43,565.99 C606.18,565.98 621.86,565.98 635.00,566.00 ZM 343.84 659.55 C341.45,659.19 338.60,659.11 335.97,659.31 C338.72,659.02 341.36,659.11 343.84,659.55 ZM 362.00 583.44 C362.00,581.26 361.74,578.96 361.35,577.08 C361.88,579.31 362.11,581.65 361.99,584.02 C362.00,583.83 362.00,583.64 362.00,583.44 Z" fill="rgb(72,72,72)"/>
<path d="M 0.00 0.00 L 1024.00 0.00 L 1024.00 1024.00 L 0.00 1024.00 ZM 336.00 906.36 C353.00,907.61 684.26,907.74 695.84,906.50 C699.33,906.13 703.70,905.19 705.56,904.41 C707.42,903.63 710.49,903.00 712.38,903.00 C714.27,903.00 718.67,902.11 722.16,901.01 C725.65,899.92 729.91,899.02 731.62,899.01 C735.66,899.00 742.43,896.60 745.70,894.02 C747.11,892.91 749.24,892.00 750.43,892.00 C751.63,892.00 753.03,891.58 753.55,891.06 C754.07,890.55 759.14,887.74 764.81,884.81 C770.49,881.89 777.26,878.38 779.86,877.00 C782.47,875.62 786.61,872.47 789.05,869.98 C791.50,867.50 796.65,862.47 800.50,858.80 C808.51,851.18 816.82,841.88 819.54,837.50 C820.57,835.85 822.84,832.86 824.60,830.86 C826.36,828.86 828.10,825.82 828.48,824.11 C828.85,822.40 829.51,821.00 829.93,821.00 C830.36,821.00 832.16,817.74 833.93,813.75 C838.48,803.56 838.72,802.94 840.00,798.76 C840.63,796.71 841.56,794.77 842.07,794.45 C842.58,794.14 843.00,792.38 843.00,790.56 C843.00,788.73 843.67,785.94 844.49,784.36 C845.32,782.79 845.99,779.64 845.99,777.38 C846.00,775.11 846.69,771.29 847.54,768.90 C850.99,759.11 853.48,730.77 854.48,690.00 C854.76,678.72 855.39,665.22 855.89,660.00 C857.31,645.08 856.76,409.96 855.29,402.00 C854.62,398.42 854.00,388.52 853.89,380.00 C853.79,371.48 853.29,363.68 852.78,362.68 C851.83,360.81 850.79,355.65 848.91,343.50 C848.31,339.65 847.22,335.15 846.49,333.50 C845.75,331.85 844.86,327.58 844.50,324.00 C844.15,320.42 843.41,315.02 842.87,312.00 C841.92,306.75 841.20,304.10 836.01,287.00 C829.42,265.27 813.80,240.40 796.62,224.30 C776.76,205.69 749.53,192.21 722.00,187.35 C712.01,185.59 701.76,185.50 512.50,185.50 C352.32,185.50 311.87,185.76 305.12,186.82 C256.31,194.53 216.49,224.15 195.50,268.37 C187.90,284.39 183.36,299.55 180.49,318.50 C179.57,324.55 178.18,330.81 177.41,332.40 C176.63,334.00 176.00,337.40 176.00,339.95 C176.00,342.51 175.51,345.09 174.91,345.69 C173.77,346.83 171.43,362.46 170.60,374.50 C169.79,386.36 168.24,400.39 167.50,402.69 C167.11,403.90 167.48,408.40 168.32,412.69 C169.62,419.35 169.77,429.48 169.34,481.50 C169.07,515.05 168.85,550.38 168.87,560.00 C168.88,569.62 168.86,582.90 168.83,589.50 C168.69,615.45 169.13,711.93 169.42,719.00 C169.59,723.12 170.42,731.22 171.27,737.00 C172.12,742.78 172.85,748.85 172.89,750.50 C173.33,766.57 174.59,773.41 178.90,783.33 C180.05,785.99 181.00,789.52 181.00,791.18 C181.00,792.84 181.82,795.39 182.82,796.85 C185.68,801.01 189.00,809.58 189.00,812.80 C189.00,814.41 189.82,816.80 190.81,818.12 C191.81,819.43 193.81,822.57 195.27,825.10 C196.72,827.63 199.52,831.63 201.50,833.99 C203.47,836.35 205.98,840.36 207.07,842.89 C210.16,850.03 210.41,850.35 214.88,852.85 C217.19,854.14 220.88,857.63 223.07,860.60 C225.27,863.57 227.69,866.00 228.45,866.00 C229.21,866.00 232.24,868.18 235.17,870.84 C240.95,876.09 252.65,884.00 254.62,884.00 C255.30,884.00 257.15,885.10 258.74,886.43 C260.33,887.77 263.85,889.76 266.57,890.85 C269.28,891.93 274.20,893.95 277.50,895.33 C280.80,896.70 287.10,898.34 291.50,898.97 C295.90,899.60 301.66,900.79 304.31,901.62 C312.01,904.03 319.46,905.15 336.00,906.36 ZM 724.50 848.34 C715.53,850.43 714.74,850.44 516.50,850.63 L 498.10 850.64 C325.09,850.81 309.39,850.83 294.61,847.17 C292.62,846.68 290.65,846.12 288.33,845.49 C235.78,831.22 196.51,789.43 185.45,736.00 C181.39,716.38 180.94,704.32 182.09,644.50 C182.67,614.25 183.45,586.58 183.82,583.00 L 184.50 576.50 L 209.42 576.23 C235.02,575.96 237.00,575.64 237.00,571.88 C237.00,570.84 237.68,570.00 238.50,570.00 C239.57,570.00 240.00,571.08 240.00,573.75 L 240.00 577.50 L 248.48 577.44 C253.14,577.40 257.27,577.06 257.65,576.69 C258.95,575.39 264.76,576.00 266.07,577.58 C267.14,578.87 267.14,579.74 266.10,582.33 C263.84,587.96 263.68,589.19 265.11,590.09 C269.06,592.59 286.17,589.64 288.70,586.02 C291.55,581.95 296.36,584.42 295.80,589.66 C295.50,592.46 295.61,592.51 302.34,593.42 C309.66,594.40 311.26,593.70 310.27,589.92 C310.00,588.90 310.33,585.79 311.00,583.00 C312.00,578.85 312.47,578.14 313.61,579.09 C315.09,580.32 315.63,591.00 314.21,591.00 C313.78,591.00 313.36,591.88 313.28,592.95 C313.15,594.67 316.16,596.73 318.10,596.25 C318.43,596.17 320.43,597.88 322.55,600.05 C324.67,602.22 326.81,604.00 327.30,604.00 C327.79,604.00 326.14,602.09 323.62,599.75 C323.52,599.66 323.42,599.57 323.33,599.47 C326.35,602.07 330.23,604.62 332.84,605.43 C338.93,607.30 340.04,607.30 345.72,605.40 C352.60,603.09 356.88,599.46 359.60,593.62 C360.32,592.06 360.88,590.48 361.27,588.89 C361.39,588.60 361.49,588.25 361.58,587.86 C361.35,589.18 361.03,590.40 360.59,591.44 C359.25,594.64 359.31,594.94 361.66,597.15 C364.11,599.45 364.16,599.46 365.28,597.49 C366.66,595.06 366.28,590.44 364.40,586.80 C362.44,583.02 362.64,581.30 365.40,578.33 C367.77,575.77 367.80,575.77 368.90,577.81 C369.50,578.94 370.00,582.41 370.00,585.52 C370.00,589.59 370.35,591.05 371.25,590.76 C371.94,590.53 372.65,588.84 372.83,586.99 C373.01,585.15 374.49,581.69 376.13,579.31 C378.77,575.48 379.34,575.11 381.19,576.10 C384.94,578.11 389.36,579.04 390.02,577.96 C390.86,576.62 395.00,575.86 395.00,577.06 C395.00,578.91 396.42,578.10 397.89,575.69 C396.57,578.90 396.17,582.59 396.87,586.35 C397.30,588.62 398.08,590.62 399.28,592.42 C397.95,590.72 397.00,589.13 397.00,588.50 C397.00,586.42 395.06,586.61 394.40,588.75 C394.10,589.71 393.42,591.31 392.89,592.29 C391.55,594.79 392.61,596.00 396.12,596.00 C397.86,596.00 398.86,595.58 398.50,595.00 C397.39,593.20 399.65,593.95 401.50,596.00 C402.50,597.10 403.52,598.00 403.77,598.00 C403.97,598.00 403.15,596.90 401.83,595.38 C402.88,596.35 404.10,597.26 405.50,598.13 C406.38,598.68 407.50,599.07 412.64,599.34 C409.18,599.25 407.29,599.16 407.10,599.05 C405.87,598.40 405.30,598.47 405.22,599.30 C405.15,599.96 404.97,601.40 404.80,602.50 C404.55,604.14 405.14,604.55 408.00,604.78 C410.63,604.99 411.13,604.81 410.00,604.05 C408.78,603.22 408.97,603.01 411.00,602.90 C413.33,602.77 413.29,602.71 410.50,602.00 C408.85,601.58 471.40,601.24 549.50,601.25 C626.76,601.26 689.02,601.48 689.02,601.73 C685.95,602.30 684.75,603.99 686.18,605.72 C687.44,607.23 691.00,607.44 691.00,606.00 C691.00,605.45 692.46,604.99 694.25,604.98 C696.04,604.98 697.00,604.64 696.39,604.23 C695.78,603.83 695.40,602.71 695.55,601.75 C695.81,600.09 688.43,600.00 552.35,600.00 C546.49,600.00 540.77,600.00 535.20,600.00 C541.00,600.00 547.05,600.00 553.38,600.00 L 698.26 600.00 L 702.52 595.75 C704.04,594.23 705.28,592.68 706.26,591.10 C705.38,592.68 704.29,594.29 703.33,595.36 C700.85,598.11 700.82,598.22 703.06,596.25 C705.80,593.85 707.93,593.17 706.21,595.25 C705.43,596.19 705.78,596.54 707.59,596.64 C708.91,596.72 710.00,596.36 710.00,595.84 C710.00,595.31 710.35,595.10 710.79,595.37 C711.22,595.63 711.57,595.02 711.57,594.00 C711.57,592.98 711.22,592.37 710.79,592.63 C710.35,592.90 709.93,592.30 709.85,591.31 C709.69,589.28 709.39,587.00 709.10,585.50 C709.04,585.16 708.74,585.53 708.34,586.37 C708.73,584.90 708.89,583.42 708.82,581.94 C708.95,580.25 708.81,579.32 708.40,579.07 C707.95,577.29 707.17,575.51 706.06,573.75 C705.84,573.40 705.65,573.07 705.48,572.76 C706.58,574.37 707.52,575.72 707.68,575.92 C708.27,576.68 707.31,570.31 706.68,569.29 C705.95,568.11 710.89,568.15 712.75,569.33 C713.44,569.76 714.00,570.98 714.00,572.03 C714.00,573.15 715.25,574.60 717.00,575.50 C720.63,577.38 720.81,578.74 717.59,579.97 C714.74,581.05 713.82,583.40 714.14,588.80 C714.37,592.70 714.41,592.74 717.43,591.88 C719.11,591.39 723.27,591.00 726.66,591.00 C735.68,591.00 736.00,590.76 736.00,584.02 C736.00,580.50 736.51,577.82 737.30,577.16 C738.19,576.43 754.12,576.04 787.43,575.95 C828.76,575.84 836.47,576.04 837.69,577.26 C840.26,579.83 842.19,630.63 841.68,682.00 C841.28,722.20 841.04,727.37 839.20,735.50 C830.81,772.54 811.13,802.61 781.50,823.67 C764.28,835.91 748.49,842.74 724.50,848.34 ZM 708.37 687.75 C708.98,685.47 709.11,682.60 708.84,680.28 L 708.84 680.28 C708.26,674.63 705.19,669.27 699.66,666.64 C696.50,665.14 683.64,665.00 552.56,665.00 C412.31,665.00 408.83,665.05 405.11,666.94 C397.28,670.94 394.72,680.07 397.33,687.79 L 397.48 688.50 L 397.50 688.27 C398.91,692.07 401.59,695.49 405.53,697.72 L 409.50 699.97 L 552.54 699.98 L 695.58 700.00 L 699.99 697.75 C703.65,695.89 706.19,692.83 707.60,689.32 C707.92,688.96 708.18,688.44 708.37,687.75 ZM 343.84 659.55 L 343.84 659.55 C341.36,659.11 338.72,659.02 335.97,659.31 C333.06,659.53 330.43,660.10 329.00,661.05 C328.98,661.06 328.96,661.07 328.94,661.09 C323.53,663.84 317.46,670.78 316.65,675.67 C315.02,685.57 316.57,692.41 321.73,698.12 C326.06,702.91 327.97,704.02 334.50,705.52 C339.79,706.73 345.06,706.06 349.92,703.54 C357.46,699.64 363.02,690.55 362.84,682.41 C362.59,671.60 356.47,663.57 347.53,660.50 C346.57,660.09 345.29,659.77 343.84,659.55 ZM 405.30 567.33 L 407.30 566.00 L 473.15 566.00 C516.38,566.00 539.00,565.66 539.00,565.00 C539.00,564.35 526.18,563.97 502.75,563.90 C421.37,563.68 410.51,563.51 408.62,562.39 C407.43,561.69 407.14,561.03 407.82,560.61 C408.69,560.07 517.09,559.82 674.64,559.98 C691.32,560.00 695.89,560.28 696.30,561.33 C696.58,562.07 696.06,562.81 695.15,562.99 C693.87,563.25 600.85,563.88 549.25,563.98 C544.43,563.99 541.00,564.42 541.00,565.00 C541.00,565.58 561.93,565.92 602.40,565.99 C597.64,565.99 592.65,565.99 587.43,565.99 C576.97,566.00 565.56,566.00 553.10,566.00 C462.60,566.00 428.49,566.05 416.55,566.56 C409.56,566.71 406.13,566.90 405.68,567.12 C405.56,567.19 405.43,567.26 405.30,567.33 ZM 341.60 559.14 C343.75,559.31 345.76,559.71 347.28,560.34 C349.05,561.08 351.13,561.47 351.89,561.21 C352.65,560.95 353.01,561.18 352.67,561.72 C352.34,562.25 353.52,564.00 355.29,565.60 L 358.50 568.50 L 355.83 565.50 L 353.16 562.50 L 355.51 560.76 C357.91,558.97 360.91,559.30 361.11,561.36 C361.41,564.46 360.67,567.58 359.46,568.27 C358.58,568.77 358.48,569.46 359.26,571.47 C355.85,564.89 349.51,560.02 341.60,559.14 ZM 317.65 573.06 C318.02,571.01 318.30,568.59 318.35,566.80 C318.53,561.16 319.88,559.50 323.55,560.42 L 326.25 561.10 L 323.98 563.52 C322.73,564.85 321.21,565.66 320.60,565.31 C320.00,564.96 319.83,565.05 320.24,565.50 C320.65,565.95 320.45,567.03 319.79,567.91 C319.19,568.71 320.18,567.98 322.03,566.28 C320.56,567.80 319.29,569.52 318.31,571.40 C318.07,571.85 317.86,572.41 317.65,573.06 ZM 386.69 592.35 C387.98,593.65 389.50,592.35 389.82,589.67 C390.16,586.81 390.01,586.67 387.58,587.61 C385.98,588.22 385.43,591.10 386.69,592.35 ZM 402.33 566.41 C402.62,567.17 401.69,568.85 400.27,570.14 C398.27,571.96 397.82,572.10 398.31,570.75 C398.65,569.79 398.47,569.00 397.91,569.00 C396.49,569.00 397.72,567.22 399.96,566.02 C401.30,565.30 401.94,565.41 402.33,566.41 ZM 487.40 604.28 C486.35,604.55 487.30,604.81 489.50,604.87 C492.17,604.94 493.04,604.68 492.10,604.09 C490.98,603.38 491.08,603.11 492.60,602.72 C493.65,602.45 492.70,602.19 490.50,602.13 C487.83,602.06 486.96,602.32 487.90,602.91 C489.02,603.62 488.92,603.89 487.40,604.28 ZM 698.60 567.06 C699.22,567.18 699.64,567.31 699.92,567.46 C701.48,568.26 702.96,568.70 703.23,568.44 C703.50,568.17 704.34,568.75 705.11,569.73 C706.40,571.37 706.36,571.39 704.54,570.00 C703.64,569.31 703.25,569.09 703.41,569.52 C702.61,568.83 701.40,568.28 699.29,567.83 ZM 326.81 562.47 C328.07,561.63 329.29,560.94 330.22,560.55 C331.70,559.93 333.56,559.51 335.54,559.27 C332.45,559.75 329.47,560.86 326.81,562.47 ZM 316.30 588.33 C315.87,585.31 316.02,580.69 316.78,576.98 C316.59,578.04 316.42,579.35 316.28,580.90 C316.16,582.15 316.12,583.33 316.14,584.39 C316.12,585.85 316.17,587.21 316.30,588.33 Z" fill="rgb(252,252,252)"/>
<path d="M 336.00 906.36 C319.46,905.15 312.01,904.03 304.31,901.62 C301.66,900.79 295.90,899.60 291.50,898.97 C287.10,898.34 280.80,896.70 277.50,895.33 C274.20,893.95 269.28,891.93 266.57,890.85 C263.85,889.76 260.33,887.77 258.74,886.43 C257.15,885.10 255.30,884.00 254.62,884.00 C252.65,884.00 240.95,876.09 235.17,870.84 C232.24,868.18 229.21,866.00 228.45,866.00 C227.69,866.00 225.27,863.57 223.07,860.60 C220.88,857.63 217.19,854.14 214.88,852.85 C210.41,850.35 210.16,850.03 207.07,842.89 C205.98,840.36 203.47,836.35 201.50,833.99 C199.52,831.63 196.72,827.63 195.27,825.10 C193.81,822.57 191.81,819.43 190.81,818.12 C189.82,816.80 189.00,814.41 189.00,812.80 C189.00,809.58 185.68,801.01 182.82,796.85 C181.82,795.39 181.00,792.84 181.00,791.18 C181.00,789.52 180.05,785.99 178.90,783.33 C174.59,773.41 173.33,766.57 172.89,750.50 C172.85,748.85 172.12,742.78 171.27,737.00 C170.42,731.22 169.59,723.12 169.42,719.00 C169.13,711.93 168.69,615.45 168.83,589.50 C168.86,582.90 168.88,569.62 168.87,560.00 C168.85,550.38 169.07,515.05 169.34,481.50 C169.77,429.48 169.62,419.35 168.32,412.69 C167.48,408.40 167.11,403.90 167.50,402.69 C168.24,400.39 169.79,386.36 170.60,374.50 C171.43,362.46 173.77,346.83 174.91,345.69 C175.51,345.09 176.00,342.51 176.00,339.95 C176.00,337.40 176.63,334.00 177.41,332.40 C178.18,330.81 179.57,324.55 180.49,318.50 C183.36,299.55 187.90,284.39 195.50,268.37 C216.49,224.15 256.31,194.53 305.12,186.82 C311.87,185.76 352.32,185.50 512.50,185.50 C701.76,185.50 712.01,185.59 722.00,187.35 C749.53,192.21 776.76,205.69 796.62,224.30 C813.80,240.40 829.42,265.27 836.01,287.00 C841.20,304.10 841.92,306.75 842.87,312.00 C843.41,315.02 844.15,320.42 844.50,324.00 C844.86,327.58 845.75,331.85 846.49,333.50 C847.22,335.15 848.31,339.65 848.91,343.50 C850.79,355.65 851.83,360.81 852.78,362.68 C853.29,363.68 853.79,371.48 853.89,380.00 C854.00,388.52 854.62,398.42 855.29,402.00 C856.76,409.96 857.31,645.08 855.89,660.00 C855.39,665.22 854.76,678.72 854.48,690.00 C853.48,730.77 850.99,759.11 847.54,768.90 C846.69,771.29 846.00,775.11 845.99,777.38 C845.99,779.64 845.32,782.79 844.49,784.36 C843.67,785.94 843.00,788.73 843.00,790.56 C843.00,792.38 842.58,794.14 842.07,794.45 C841.56,794.77 840.63,796.71 840.00,798.76 C838.72,802.94 838.48,803.56 833.93,813.75 C832.16,817.74 830.36,821.00 829.93,821.00 C829.51,821.00 828.85,822.40 828.48,824.11 C828.10,825.82 826.36,828.86 824.60,830.86 C822.84,832.86 820.57,835.85 819.54,837.50 C816.82,841.88 808.51,851.18 800.50,858.80 C796.65,862.47 791.50,867.50 789.05,869.98 C786.61,872.47 782.47,875.62 779.86,877.00 C777.26,878.38 770.49,881.89 764.81,884.81 C759.14,887.74 754.07,890.55 753.55,891.06 C753.03,891.58 751.63,892.00 750.43,892.00 C749.24,892.00 747.11,892.91 745.70,894.02 C742.43,896.60 735.66,899.00 731.62,899.01 C729.91,899.02 725.65,899.92 722.16,901.01 C718.67,902.11 714.27,903.00 712.38,903.00 C710.49,903.00 707.42,903.63 705.56,904.41 C703.70,905.19 699.33,906.13 695.84,906.50 C684.26,907.74 353.00,907.61 336.00,906.36 ZM 724.50 848.34 C748.49,842.74 764.28,835.91 781.50,823.67 C811.13,802.61 830.81,772.54 839.20,735.50 C841.04,727.37 841.28,722.20 841.68,682.00 C842.19,630.63 840.26,579.83 837.69,577.26 C836.47,576.04 828.76,575.84 787.43,575.95 C754.12,576.04 738.19,576.43 737.30,577.16 C736.51,577.82 736.00,580.50 736.00,584.02 C736.00,590.76 735.68,591.00 726.66,591.00 C723.27,591.00 719.11,591.39 717.43,591.88 C714.41,592.74 714.37,592.70 714.14,588.80 C713.82,583.40 714.74,581.05 717.59,579.97 C720.81,578.74 720.63,577.38 717.00,575.50 C715.25,574.60 714.00,573.15 714.00,572.03 C714.00,570.98 713.44,569.76 712.75,569.33 C710.89,568.15 705.95,568.11 706.68,569.29 C707.31,570.31 708.27,576.68 707.68,575.92 C707.50,575.69 706.28,573.92 704.97,572.00 C702.96,569.06 702.89,568.74 704.54,570.00 C706.36,571.39 706.40,571.37 705.11,569.73 C704.34,568.75 703.50,568.17 703.23,568.44 C702.96,568.70 701.48,568.26 699.92,567.46 C697.52,566.22 685.52,566.00 619.05,566.00 C567.68,566.00 541.00,565.66 541.00,565.00 C541.00,564.42 544.43,563.99 549.25,563.98 C600.85,563.88 693.87,563.25 695.15,562.99 C696.06,562.81 696.58,562.07 696.30,561.33 C695.89,560.28 691.32,560.00 674.64,559.98 C517.09,559.82 408.69,560.07 407.82,560.61 C407.14,561.03 407.43,561.69 408.62,562.39 C410.51,563.51 421.37,563.68 502.75,563.90 C526.18,563.97 539.00,564.35 539.00,565.00 C539.00,565.66 516.38,566.00 473.15,566.00 L 407.30 566.00 L 403.90 568.26 C402.03,569.51 399.68,572.21 398.67,574.26 C396.96,577.74 395.00,579.23 395.00,577.06 C395.00,575.86 390.86,576.62 390.02,577.96 C389.36,579.04 384.94,578.11 381.19,576.10 C379.34,575.11 378.77,575.48 376.13,579.31 C374.49,581.69 373.01,585.15 372.83,586.99 C372.65,588.84 371.94,590.53 371.25,590.76 C370.35,591.05 370.00,589.59 370.00,585.52 C370.00,582.41 369.50,578.94 368.90,577.81 C367.80,575.77 367.77,575.77 365.40,578.33 C362.64,581.30 362.44,583.02 364.40,586.80 C366.28,590.44 366.66,595.06 365.28,597.49 C364.16,599.46 364.11,599.45 361.66,597.15 C359.31,594.94 359.25,594.64 360.59,591.44 C362.58,586.68 362.32,578.31 360.03,573.27 C358.47,569.82 358.36,568.89 359.46,568.27 C360.67,567.58 361.41,564.46 361.11,561.36 C360.91,559.30 357.91,558.97 355.51,560.76 L 353.16 562.50 L 355.83 565.50 L 358.50 568.50 L 355.29 565.60 C353.52,564.00 352.34,562.25 352.67,561.72 C353.01,561.18 352.65,560.95 351.89,561.21 C351.13,561.47 349.05,561.08 347.28,560.34 C342.97,558.54 334.79,558.65 330.22,560.55 C328.17,561.40 324.72,563.76 322.55,565.80 C320.37,567.83 319.13,568.78 319.79,567.91 C320.45,567.03 320.65,565.95 320.24,565.50 C319.83,565.05 320.00,564.96 320.60,565.31 C321.21,565.66 322.73,564.85 323.98,563.52 L 326.25 561.10 L 323.55 560.42 C319.88,559.50 318.53,561.16 318.35,566.80 C318.27,569.39 317.72,573.30 317.13,575.50 C315.66,580.95 315.72,589.56 317.25,591.20 C317.94,591.94 318.62,593.21 318.77,594.02 C318.92,594.84 321.10,597.41 323.62,599.75 C326.14,602.09 327.79,604.00 327.30,604.00 C326.81,604.00 324.67,602.22 322.55,600.05 C320.43,597.88 318.43,596.17 318.10,596.25 C316.16,596.73 313.15,594.67 313.28,592.95 C313.36,591.88 313.78,591.00 314.21,591.00 C315.63,591.00 315.09,580.32 313.61,579.09 C312.47,578.14 312.00,578.85 311.00,583.00 C310.33,585.79 310.00,588.90 310.27,589.92 C311.26,593.70 309.66,594.40 302.34,593.42 C295.61,592.51 295.50,592.46 295.80,589.66 C296.36,584.42 291.55,581.95 288.70,586.02 C286.17,589.64 269.06,592.59 265.11,590.09 C263.68,589.19 263.84,587.96 266.10,582.33 C267.14,579.74 267.14,578.87 266.07,577.58 C264.76,576.00 258.95,575.39 257.65,576.69 C257.27,577.06 253.14,577.40 248.48,577.44 L 240.00 577.50 L 240.00 573.75 C240.00,571.08 239.57,570.00 238.50,570.00 C237.68,570.00 237.00,570.84 237.00,571.88 C237.00,575.64 235.02,575.96 209.42,576.23 L 184.50 576.50 L 183.82 583.00 C183.45,586.58 182.67,614.25 182.09,644.50 C180.94,704.32 181.39,716.38 185.45,736.00 C196.51,789.43 235.78,831.22 288.33,845.49 C308.61,850.99 301.49,850.83 516.50,850.63 C714.74,850.44 715.53,850.43 724.50,848.34 ZM 402.33 566.41 C401.94,565.41 401.30,565.30 399.96,566.02 C397.72,567.22 396.49,569.00 397.91,569.00 C398.47,569.00 398.65,569.79 398.31,570.75 C397.82,572.10 398.27,571.96 400.27,570.14 C401.69,568.85 402.62,567.17 402.33,566.41 ZM 491.08 498.50 C493.51,496.99 528.88,462.44 569.67,421.73 C622.81,368.70 644.60,346.31 646.54,342.74 C654.20,328.68 648.40,310.95 633.62,303.23 C629.42,301.03 627.24,300.56 621.49,300.62 C608.38,300.76 611.35,298.25 540.98,368.55 C506.05,403.45 477.02,432.00 476.48,432.00 C475.93,432.00 463.11,419.58 447.99,404.40 C417.63,373.92 413.75,371.00 403.44,371.00 C397.25,371.00 386.73,374.93 382.71,378.75 C372.85,388.10 371.40,406.93 379.73,417.14 C381.24,418.99 399.80,437.88 420.99,459.13 C465.08,503.36 463.72,502.36 478.58,501.64 C485.23,501.31 487.44,500.76 491.08,498.50 ZM 686.18 605.72 C684.75,603.99 685.95,602.30 689.00,601.74 C690.38,601.48 627.60,601.26 549.50,601.25 C471.40,601.24 408.85,601.58 410.50,602.00 C413.29,602.71 413.33,602.77 411.00,602.90 C408.97,603.01 408.78,603.22 410.00,604.05 C411.13,604.81 410.63,604.99 408.00,604.78 C405.14,604.55 404.55,604.14 404.80,602.50 C404.97,601.40 405.15,599.96 405.22,599.30 C405.30,598.47 405.87,598.40 407.10,599.05 C408.19,599.64 464.07,600.00 552.35,600.00 C688.43,600.00 695.81,600.09 695.55,601.75 C695.40,602.71 695.78,603.83 696.39,604.23 C697.00,604.64 696.04,604.98 694.25,604.98 C692.46,604.99 691.00,605.45 691.00,606.00 C691.00,607.44 687.44,607.23 686.18,605.72 ZM 487.40 604.28 C488.92,603.89 489.02,603.62 487.90,602.91 C486.96,602.32 487.83,602.06 490.50,602.13 C492.70,602.19 493.65,602.45 492.60,602.72 C491.08,603.11 490.98,603.38 492.10,604.09 C493.04,604.68 492.17,604.94 489.50,604.87 C487.30,604.81 486.35,604.55 487.40,604.28 ZM 401.50 596.00 C399.65,593.95 397.39,593.20 398.50,595.00 C398.86,595.58 397.86,596.00 396.12,596.00 C392.61,596.00 391.55,594.79 392.89,592.29 C393.42,591.31 394.10,589.71 394.40,588.75 C395.06,586.61 397.00,586.42 397.00,588.50 C397.00,589.32 398.63,591.80 400.62,594.00 C402.61,596.20 404.03,598.00 403.77,598.00 C403.52,598.00 402.50,597.10 401.50,596.00 ZM 703.33 595.36 C704.89,593.64 706.78,590.49 707.54,588.36 C708.29,586.24 709.00,584.95 709.10,585.50 C709.39,587.00 709.69,589.28 709.85,591.31 C709.93,592.30 710.35,592.90 710.79,592.63 C711.22,592.37 711.57,592.98 711.57,594.00 C711.57,595.02 711.22,595.63 710.79,595.37 C710.35,595.10 710.00,595.31 710.00,595.84 C710.00,596.36 708.91,596.72 707.59,596.64 C705.78,596.54 705.43,596.19 706.21,595.25 C707.93,593.17 705.80,593.85 703.06,596.25 C700.82,598.22 700.85,598.11 703.33,595.36 ZM 386.69 592.35 C385.43,591.10 385.98,588.22 387.58,587.61 C390.01,586.67 390.16,586.81 389.82,589.67 C389.50,592.35 387.98,593.65 386.69,592.35 Z" fill="rgb(224,224,224)"/>
</g>
</svg>